<svg xmlns="http://www.w3.org/2000/svg" width="65" height="47" viewBox="0 0 65 47"><path fill="#e31e25" d="M52 35.76a1 1 0 0 1-.69-.28L39.62 24.46a1.01 1.01 0 0 1-.08-.09l-3.31 2.9a5.66 5.66 0 0 1-3.73 1.36c-1.35 0-2.7-.45-3.73-1.35l-3.31-2.9-.08.08-11.7 11.02a1 1 0 0 1-1.43-.05 1.02 1.02 0 0 1 .04-1.44l11.64-10.96L3.27 4.92c-.16.36-.24.76-.24 1.18v34.8a3.06 3.06 0 0 0 3.05 3.06h52.84a3.06 3.06 0 0 0 3.05-3.06V6.1c0-.42-.08-.81-.23-1.17l-20.66 18.1L52.7 33.99a1.02 1.02 0 0 1-.7 1.77zM58.93 46H6.08A5.1 5.1 0 0 1 1 40.9V6.1A5.1 5.1 0 0 1 6.08 1h52.84A5.1 5.1 0 0 1 64 6.1v34.8a5.1 5.1 0 0 1-5.08 5.1zM6.08 3.04c-.53 0-1.02.13-1.45.37L30.1 25.74a3.79 3.79 0 0 0 4.8 0L60.36 3.4a3.02 3.02 0 0 0-1.45-.37z"/></svg>