<svg xmlns="http://www.w3.org/2000/svg" width="35" height="35" viewBox="0 0 35 35">
  <defs>
    <style>
      .cls-1 {
        fill: #e31e25;
        fill-rule: evenodd;
      }
    </style>
  </defs>
  <path id="Forma_1" data-name="Forma 1" class="cls-1" d="M543.887,555.736l-5.6-8.548a0.684,0.684,0,0,0-.571-0.309h-22.4a0.685,0.685,0,0,0-.571.308l-5.613,8.522a0.671,0.671,0,0,0-.069.119,0.683,0.683,0,0,0,.108.733l2.845,3.249a0.684,0.684,0,0,0,1.029-.9l-1.853-2.115h9.194l4.62,15.776-5.22-5.962a0.684,0.684,0,1,0-1.029.9l7.232,8.258a0.682,0.682,0,0,0,1.028,0l7.7-8.794a0.683,0.683,0,0,0-1.028-.9l-5.688,6.5,4.619-15.774h9.191l-4.251,4.855a0.683,0.683,0,1,0,1.028.9l5.244-5.989A0.684,0.684,0,0,0,543.887,555.736Zm-32.933-.309,4.36-6.62,4.34,6.62h-8.7Zm5.627-7.18h8.655l-4.327,6.6Zm9.921,0.563,4.339,6.617h-8.678Zm0,24.006-4.692-16.022h9.384Zm5.6-17.952-4.339-6.617h8.678Zm1.266,0.563,4.339-6.617,4.339,6.617h-8.678Zm-13.627,7.928a3.2,3.2,0,0,1-3.2-3.2,0.684,0.684,0,1,0-1.367,0,3.2,3.2,0,0,1-3.2,3.2,0.684,0.684,0,0,0,0,1.367,3.2,3.2,0,0,1,3.2,3.2,0.684,0.684,0,1,0,1.367,0,3.2,3.2,0,0,1,3.2-3.2A0.684,0.684,0,1,0,519.745,563.355Zm-3.881,2.164a4.6,4.6,0,0,0-1.48-1.481,4.583,4.583,0,0,0,1.48-1.481,4.6,4.6,0,0,0,1.481,1.481A4.615,4.615,0,0,0,515.864,565.519Zm27.451-21.785a2.053,2.053,0,0,1-2.05-2.051,0.684,0.684,0,1,0-1.367,0,2.053,2.053,0,0,1-2.051,2.051,0.684,0.684,0,0,0,0,1.367,2.053,2.053,0,0,1,2.051,2.051,0.684,0.684,0,0,0,1.367,0,2.053,2.053,0,0,1,2.05-2.051A0.684,0.684,0,1,0,543.315,543.734Zm-2.734,1.369a3.478,3.478,0,0,0-.685-0.686,3.394,3.394,0,0,0,.685-0.685,3.4,3.4,0,0,0,.686.685A3.483,3.483,0,0,0,540.581,545.1Zm-4.048,18.823a0.683,0.683,0,0,0-1.166.483A0.684,0.684,0,1,0,536.533,563.926Z" transform="translate(-509 -541)"/>
</svg>
