<svg xmlns="http://www.w3.org/2000/svg" width="35" height="35" viewBox="0 0 35 35">
  <defs>
    <style>
      .cls-1 {
        fill: #e31e25;
        fill-rule: evenodd;
      }
    </style>
  </defs>
  <path id="Forma_1" data-name="Forma 1" class="cls-1" d="M736.322,568.544a0.681,0.681,0,1,0,.2.483A0.685,0.685,0,0,0,736.322,568.544Zm10.541-13.6a0.683,0.683,0,0,0-.548-0.275h-2.787V541.683a0.685,0.685,0,0,0-.684-0.684H730.266a0.685,0.685,0,0,0-.684.684v5.264h-7.049a0.683,0.683,0,0,0-.684.683v7.041h-2.535a0.684,0.684,0,0,0-.655.878l4.032,13.671a0.683,0.683,0,0,0,.655.491h9.469a0.684,0.684,0,0,0,0-1.368h-8.958l-3.628-12.3H745.4l-3.629,12.3h-2.5a0.684,0.684,0,0,0,0,1.368h3.008a0.685,0.685,0,0,0,.656-0.491l4.032-13.671A0.684,0.684,0,0,0,746.863,554.946Zm-12.71-.275H723.217v-6.357h10.936v6.357h0Zm8.007,0h-6.64V547.63a0.683,0.683,0,0,0-.683-0.683H730.95v-4.58h11.21v12.3Zm0.881,16.27H721.95l-5.665-19.208a0.684,0.684,0,0,0-.656-0.49h-2.946a0.684,0.684,0,0,0,0,1.367h2.435l5.665,19.208a0.682,0.682,0,0,0,.655.49h3.392a2.53,2.53,0,1,0,4.491,0h5.6a2.53,2.53,0,1,0,4.491,0h3.634A0.684,0.684,0,1,0,743.041,570.941Zm-15.966,3.691a1.162,1.162,0,1,1,1.163-1.162A1.164,1.164,0,0,1,727.075,574.632Zm10.087,0a1.162,1.162,0,1,1,1.162-1.162A1.163,1.163,0,0,1,737.162,574.632Zm-7.993-16.411a0.687,0.687,0,1,0,.2.484A0.69,0.69,0,0,0,729.169,558.221Zm-3.359-.2h-4.964a0.684,0.684,0,0,0,0,1.367h4.964A0.684,0.684,0,0,0,725.81,558.021Z" transform="translate(-712 -541)"/>
</svg>
