<svg xmlns="http://www.w3.org/2000/svg" width="20" height="19" viewBox="0 0 20 19"><path fill="#e31e25" d="M19.99 15c.04.3-.05.57-.28.8l-2.68 2.66a1.87 1.87 0 0 1-1.42.54 9.27 9.27 0 0 1-3.33-.78c-.83-.34-1.76-.85-2.81-1.54a21.2 21.2 0 0 1-3.34-2.81A22.12 22.12 0 0 1 3.8 11.2a19.15 19.15 0 0 1-1.49-2.34A12.35 12.35 0 0 1 1.08 5.4a5.92 5.92 0 0 1-.08-1l.02-.4c.03-.18.09-.37.18-.57.1-.2.21-.35.35-.47L4.22.28c.19-.19.4-.28.64-.28.18 0 .33.05.47.15.13.1.25.23.34.37l2.15 4.09c.12.21.16.45.1.7-.05.26-.17.47-.34.65l-.99.98a.5.5 0 0 0-.1.28c.06.29.18.6.37.97.16.32.41.72.74 1.18.34.46.81 1 1.43 1.6.6.62 1.14 1.1 1.61 1.44.47.34.86.6 1.17.75.32.16.56.26.73.3l.25.04c.03 0 .07 0 .13-.03.06-.02.1-.04.13-.07l1.15-1.16c.24-.22.52-.33.84-.33.23 0 .41.04.55.13h.02l3.88 2.29a1 1 0 0 1 .5.66z"/></svg>