<svg xmlns="http://www.w3.org/2000/svg" width="35" height="35" viewBox="0 0 35 35">
  <defs>
    <style>
      .cls-1 {
        fill: #e31e25;
        fill-rule: evenodd;
      }
    </style>
  </defs>
  <path id="Forma_1" data-name="Forma 1" class="cls-1" d="M998.449,543.171a0.682,0.682,0,0,0-.195-0.414l-0.007-.007a0.689,0.689,0,0,0-.419-0.2A22.2,22.2,0,0,0,977.21,548.5l-0.455.455H970.52a0.684,0.684,0,0,0-.483.2l-5.839,5.839a0.686,0.686,0,0,0,0,.967l2.776,2.776-0.62.62a0.684,0.684,0,0,0,0,.967l2.369,2.369-1.86,3.293a0.684,0.684,0,0,0,.112.82l0.865,0.864a13.654,13.654,0,0,0-3.061,5.629l-0.758,2.842a0.683,0.683,0,0,0,.661.859,0.66,0.66,0,0,0,.176-0.023l2.842-.758a13.64,13.64,0,0,0,5.628-3.061l0.862,0.863a0.684,0.684,0,0,0,.484.2,0.676,0.676,0,0,0,.336-0.089l3.292-1.86,2.376,2.376a0.682,0.682,0,0,0,.967,0l0.62-.62,2.765,2.766a0.684,0.684,0,0,0,.967,0l5.838-5.839a0.684,0.684,0,0,0,.2-0.484v-6.214l0.466-.465A22.2,22.2,0,0,0,998.449,543.171Zm-32.8,12.306,5.155-5.156h4.584l-6.2,6.2h0l-1.25,1.25Zm1.7,19.42-1.7.454,0.454-1.7a12.28,12.28,0,0,1,2.707-5.013l3.552,3.553A12.288,12.288,0,0,1,967.348,574.9Zm7.442-2.211-0.911-.911a0.691,0.691,0,0,0-.051-0.057,0.547,0.547,0,0,0-.057-0.051l-4.441-4.441a0.537,0.537,0,0,0-.05-0.057c-0.019-.019-0.038-0.035-0.057-0.051l-0.913-.913,1.417-2.509,7.572,7.573Zm15.878-2.5-5.154,5.156-2.282-2.283,7.436-7.437v4.564h0Zm0.867-7.363-9.753,9.753h0l-0.619.619-2.26-2.26h0l-8.844-8.845h0l-2.252-2.253,1.87-1.87,9.124,9.125a0.684,0.684,0,1,0,.967-0.967L970.642,557l7.535-7.536a20.7,20.7,0,0,1,19.012-5.656A20.706,20.706,0,0,1,991.535,562.825Zm-2.062-6.928a0.684,0.684,0,0,0-.684.683v0.043a0.685,0.685,0,0,0,.678.69h0.006a0.685,0.685,0,0,0,.684-0.679V556.58A0.683,0.683,0,0,0,989.473,555.9Zm-0.343,2.641a0.682,0.682,0,0,0-.935.246,4.377,4.377,0,1,1-.427-5.014,0.684,0.684,0,0,0,1.048-.879,5.743,5.743,0,1,0,.56,6.582A0.684,0.684,0,0,0,989.13,558.538Zm-7.76,9.194a0.684,0.684,0,0,0-1.167.483A0.684,0.684,0,1,0,981.37,567.732Z" transform="translate(-964 -542)"/>
</svg>
