<svg xmlns="http://www.w3.org/2000/svg" width="40" height="36" viewBox="0 0 40 36">
  <defs>
    <style>
      .cls-1 {
        fill: #e31e25;
        fill-rule: evenodd;
      }
    </style>
  </defs>
  <path id="Прямоугольник_1" data-name="Прямоугольник 1" class="cls-1" d="M1275,554.419v-0.674a5.288,5.288,0,0,0-5.33-5.236h-5a3.6,3.6,0,1,1,0-7.2h7V540h-7a4.91,4.91,0,1,0,0,9.818h5a3.978,3.978,0,0,1,4,3.927v0.674a7.11,7.11,0,0,1-2.15,5.091l-0.53.518-6.87-6.746a0.655,0.655,0,0,0-.47-0.192H1237a1.985,1.985,0,0,0-2,1.964v18.982a1.986,1.986,0,0,0,2,1.964h26.65a0.7,0.7,0,0,0,.49-0.207l9.33-9.74a2.572,2.572,0,0,0-.06-3.645l-1.48-1.454,0.53-.518A8.367,8.367,0,0,0,1275,554.419Zm-2.53,8.914a1.3,1.3,0,0,1,.03,1.823l-9.14,9.534H1237a0.662,0.662,0,0,1-.67-0.654V555.054a0.663,0.663,0,0,1,.67-0.655h26.37l6.68,6.554-1.04,1.018a2.6,2.6,0,1,0,1.32,2.247,2.486,2.486,0,0,0-.38-1.322l1.04-1.016Zm-4.33,1.348,0.81-.8a1.263,1.263,0,0,1,.05.335,1.335,1.335,0,1,1-1.33-1.31,1.377,1.377,0,0,1,.34.05l-0.82.8Zm-24.94,1.231a2.154,2.154,0,0,0-.19-0.9,1.939,1.939,0,0,0-.59-0.686,5.707,5.707,0,0,0-1.26-.654,6.925,6.925,0,0,1-1.05-.5,1.338,1.338,0,0,1-.43-0.4,0.914,0.914,0,0,1-.12-0.511,0.839,0.839,0,0,1,.32-0.7,1.435,1.435,0,0,1,.94-0.261,4.888,4.888,0,0,1,1.85.429l0.41-1.021a5.536,5.536,0,0,0-2.23-.482,2.882,2.882,0,0,0-1.86.55,1.794,1.794,0,0,0-.7,1.509,2.017,2.017,0,0,0,.44,1.309,3.647,3.647,0,0,0,1.5.969,5.111,5.111,0,0,1,1.37.7,0.934,0.934,0,0,1,.33.728,0.91,0.91,0,0,1-.36.76,1.781,1.781,0,0,1-1.11.283,5.006,5.006,0,0,1-1.13-.138,5.916,5.916,0,0,1-1.13-.389v1.184a5.022,5.022,0,0,0,2.17.4,3.3,3.3,0,0,0,2.07-.581A1.942,1.942,0,0,0,1243.2,565.912Zm4.78-5.611h-1.39l-2.91,7.692h1.34l0.76-2.128h2.99l0.78,2.128h1.35Zm-1.82,4.484,0.7-2a11.515,11.515,0,0,0,.42-1.409c0.04,0.139.1,0.359,0.2,0.659s0.17,0.521.22,0.661l0.73,2.085h-2.27Zm7.05,2.133v-6.586h-1.28v7.661h4.58v-1.075h-3.3Zm9.06-5.527v-1.059h-4.41v7.661h4.41v-1.064h-3.14v-2.4h2.94v-1.048h-2.94v-2.085h3.14Zm-23.94-5.028h24v1.309h-24v-1.309Zm7.5,15.055h16.5v1.309h-16.5v-1.309Zm0,0h16.5v1.309h-16.5v-1.309Zm-7.49.019h5.91v1.282h-5.91v-1.282Z" transform="translate(-1235 -540)"/>
</svg>
