<svg xmlns="http://www.w3.org/2000/svg" width="42" height="30" viewBox="0 0 42 30">
  <defs>
    <style>
      .cls-1 {
        fill: #e31e25;
        fill-rule: evenodd;
      }
    </style>
  </defs>
  <path id="Forma_1" data-name="Forma 1" class="cls-1" d="M1517.8,566.627a4.187,4.187,0,1,0,4.2,4.186A4.2,4.2,0,0,0,1517.8,566.627Zm0,6.977a2.791,2.791,0,1,1,2.8-2.791A2.8,2.8,0,0,1,1517.8,573.6Zm23.8-6.977a4.187,4.187,0,1,0,4.2,4.186A4.2,4.2,0,0,0,1541.6,566.627Zm0,6.977a2.791,2.791,0,1,1,2.8-2.791A2.8,2.8,0,0,1,1541.6,573.6Zm8.29-10.842-6.3-9.768a0.7,0.7,0,0,0-.59-0.32h-7.7a0.7,0.7,0,0,0-.7.7v17.441a0.7,0.7,0,0,0,.7.7h2.8v-1.395H1536V554.069h6.62l5.98,9.275v6.772h-3.5v1.395h4.2a0.7,0.7,0,0,0,.7-0.7v-7.674A0.717,0.717,0,0,0,1549.89,562.762Zm-11.09-1.018V556.86h5.6v-1.395h-6.3a0.7,0.7,0,0,0-.7.7v6.279a0.7,0.7,0,0,0,.7.7h10.5v-1.395h-9.8Zm-3.5-13.954h-26.6a0.7,0.7,0,0,0-.7.7v22.325a0.7,0.7,0,0,0,.7.7h5.6v-1.395h-4.9v-20.93h25.2v20.93h-13.3v1.395h14a0.7,0.7,0,0,0,.7-0.7V548.488A0.7,0.7,0,0,0,1535.3,547.79Zm-26.6,19.535h4.2v1.4h-4.2v-1.4Zm14,0h11.9v1.4h-11.9v-1.4Zm23.8,0h2.8v1.4h-2.8v-1.4Zm-35.7-16.744h24.5v1.395h-24.5v-1.395Zm6.3,19.535h1.4v1.395h-1.4v-1.395Zm23.8,0h1.4v1.395h-1.4v-1.395ZM1510.8,545h9.8V546.4h-9.8V545Zm-2.8,0h1.4V546.4H1508V545Z" transform="translate(-1508 -545)"/>
</svg>
